<svg xmlns="http://www.w3.org/2000/svg" viewBox="0 0 512 512" width="512" height="512">
  <rect width="512" height="512" rx="92" fill="#2b1d14"/>
  <rect x="14" y="14" width="484" height="484" rx="80" fill="none" stroke="#3d2a1c" stroke-width="8"/>

  <g transform="translate(-28 -24)">
    <g transform="translate(405 412) rotate(-40)" fill="none">
      <rect x="-20" y="-65" width="40" height="130" rx="20" stroke="#1a110b" stroke-width="40"/>
      <rect x="-20" y="-65" width="40" height="130" rx="20" stroke="#c48f34" stroke-width="22"/>
    </g>

    <rect x="290" y="226" width="104" height="170" rx="52" fill="none" stroke="#1a110b" stroke-width="44"/>
    <rect x="290" y="226" width="104" height="170" rx="52" fill="none" stroke="#d9a441" stroke-width="26"/>
    <path d="M378 252 Q372 240 360 236" fill="none" stroke="#f2cd73" stroke-width="7" stroke-linecap="round"/>

    <g transform="translate(405 412) rotate(-40)" fill="none">
      <path d="M20 -50 L20 -6" stroke="#1a110b" stroke-width="40"/>
      <path d="M20 -52 L20 -4" stroke="#c48f34" stroke-width="22"/>
    </g>

    <g fill="#1a110b" stroke="#1a110b" stroke-width="18" stroke-linejoin="round">
      <path d="M118 196 L310 196 L302 412 Q301 428 285 428 L143 428 Q127 428 126 412 Z"/>
      <circle cx="136" cy="196" r="28"/>
      <circle cx="174" cy="166" r="38"/>
      <circle cx="226" cy="154" r="42"/>
      <circle cx="276" cy="170" r="36"/>
      <circle cx="308" cy="196" r="24"/>
    </g>

    <path d="M118 196 L310 196 L302 412 Q301 428 285 428 L143 428 Q127 428 126 412 Z" fill="#b8702c"/>
    <path d="M168 204 L170 420 L148 420 Q138 420 138 410 L134 204 Z" fill="#c9823a"/>
    <path d="M168 204 L170 420 M214 204 L214 420 M260 204 L258 420" stroke="#8f5420" stroke-width="7"/>

    <rect x="116" y="232" width="196" height="24" fill="#4b4a52"/>
    <rect x="116" y="368" width="192" height="24" fill="#4b4a52"/>
    <path d="M116 232 L312 232 M116 256 L312 256 M116 368 L308 368 M116 392 L308 392" stroke="#1a110b" stroke-width="6"/>
    <g fill="#8d8b94">
      <circle cx="146" cy="244" r="5"/><circle cx="192" cy="244" r="5"/><circle cx="238" cy="244" r="5"/><circle cx="284" cy="244" r="5"/>
      <circle cx="146" cy="380" r="5"/><circle cx="192" cy="380" r="5"/><circle cx="238" cy="380" r="5"/><circle cx="282" cy="380" r="5"/>
    </g>

    <g fill="#f3e4c2">
      <circle cx="136" cy="196" r="28"/>
      <circle cx="174" cy="166" r="38"/>
      <circle cx="226" cy="154" r="42"/>
      <circle cx="276" cy="170" r="36"/>
      <circle cx="308" cy="196" r="24"/>
      <rect x="136" y="180" width="172" height="40"/>
    </g>
    <path d="M110 214 Q160 230 214 222 Q262 230 318 210 L318 222 Q262 240 214 232 Q160 240 110 224 Z" fill="#dcc79d"/>
    <circle cx="200" cy="146" r="10" fill="#fffaf0"/>
    <circle cx="160" cy="166" r="6" fill="#fffaf0"/>
  </g>
</svg>
